<svg width="24" height="24" viewBox="0 0 24 24" fill="none" xmlns="http://www.w3.org/2000/svg">
<g clip-path="url(#clip0)">
<path d="M0.146485 11.6464L7.64648 4.14644C7.84181 3.95111 8.15822 3.95111 8.3535 4.14644C8.54883 4.34176 8.54883 4.65817 8.3535 4.85345L1.707 11.5L23.5 11.5C23.7764 11.5 24 11.7236 24 12C24 12.2763 23.7764 12.5 23.5 12.5L1.707 12.5L8.3535 19.1464C8.54883 19.3418 8.54883 19.6582 8.3535 19.8535C8.25586 19.9511 8.12789 19.9999 7.99997 19.9999C7.87205 19.9999 7.74413 19.9511 7.64644 19.8535L0.146437 12.3535C-0.0488427 12.1582 -0.0488427 11.8418 0.146485 11.6464Z" fill="white"/>
</g>
<defs>
<clipPath id="clip0">
<rect width="24" height="24" fill="white" transform="matrix(-1 8.74228e-08 8.74228e-08 1 24 0)"/>
</clipPath>
</defs>
</svg>
