<svg width="80" height="80" viewBox="0 0 80 80" fill="none" xmlns="http://www.w3.org/2000/svg">
<g clip-path="url(#clip0)">
<path d="M79.9417 49.2565C79.2075 40.2506 71.6754 33.3213 62.6397 33.3391C61.2858 33.3368 59.9363 33.4934 58.619 33.8056C58.1939 26.0737 52.7212 19.5481 45.1816 17.7828C45.0603 17.7534 44.9377 17.7295 44.8164 17.7055C41.3563 12.0802 33.9911 10.3251 28.3657 13.7852C25.7381 15.4014 23.8367 17.9707 23.0591 20.9559C17.6884 18.5314 11.3692 20.9199 8.94473 26.2906C8.32287 27.6682 8.0007 29.1623 7.99987 30.6738C7.9997 31.147 8.03035 31.6198 8.09182 32.0891C2.99499 32.7617 -0.591577 37.4388 0.0809257 42.5358C0.363953 44.6799 1.38462 46.6584 2.96767 48.1318C2.80642 48.3171 2.63983 48.4997 2.49324 48.6942C0.873203 50.7824 -0.00286648 53.3518 0.00379691 55.9946C0.0111266 62.6157 5.37682 67.9814 11.9979 67.9887H62.6397C63.1341 67.9887 63.6138 67.9741 64.0816 67.9314C73.6183 67.1543 80.7191 58.7931 79.9417 49.2565ZM4.35266 36.9159C5.6157 35.4906 7.42815 34.674 9.33254 34.672H9.43649C9.4808 34.6695 9.52545 34.6695 9.56976 34.672C10.014 34.7228 10.454 34.5452 10.7385 34.2002C11.0234 33.8574 11.1178 33.3946 10.9904 32.9675C10.7727 32.2225 10.6632 31.45 10.6652 30.6739C10.6696 26.2596 14.247 22.6822 18.6613 22.6779C20.3126 22.6685 21.9249 23.1816 23.267 24.1438C23.8646 24.5734 24.6973 24.4372 25.1269 23.8396C25.267 23.6447 25.352 23.4155 25.3727 23.1763C25.8426 18.1639 30.1875 14.4173 35.2145 14.6898C37.4617 14.8182 39.5845 15.7633 41.1835 17.3471C41.0996 17.3471 41.0183 17.3605 40.9343 17.3618H40.881C40.2615 17.3783 39.6431 17.4273 39.0286 17.5084L38.9566 17.5204C38.3563 17.6014 37.7606 17.7143 37.1722 17.8589L37.0736 17.8842C36.5053 18.0261 35.945 18.1974 35.3944 18.3973L35.2398 18.4533C34.7201 18.6478 34.2115 18.8669 33.7139 19.1103C33.6366 19.1476 33.5593 19.1822 33.4833 19.2209C33.0222 19.4554 32.5731 19.7127 32.1333 19.9885C32.0334 20.0498 31.9321 20.1071 31.8348 20.1698C31.4217 20.4363 31.0219 20.7348 30.6354 21.0427C30.5301 21.1253 30.4208 21.1986 30.3169 21.2839C29.8358 21.6779 29.3759 22.0968 28.9389 22.5393C27.8366 23.6515 26.8994 24.9163 26.1563 26.2947V26.2868L26.1456 26.3027C26.1056 26.3647 26.0703 26.4298 26.0403 26.4973C25.4734 27.5426 25.0205 28.6458 24.689 29.7877C24.4021 30.7764 24.2046 31.7889 24.0986 32.8129C24.0243 33.4297 23.9887 34.0506 23.992 34.672C23.992 34.7613 23.992 34.8505 23.992 34.9385C21.1461 34.3689 18.1924 34.7341 15.5708 35.9793C14.9966 36.2603 14.4419 36.5797 13.9103 36.9349C13.5936 37.1391 13.2921 37.3658 13.0081 37.6132C12.5065 38.0075 12.0352 38.4386 11.5981 38.9032C11.1668 39.3553 10.7712 39.8401 10.4147 40.3532C9.52295 41.6215 8.86078 43.0365 8.45831 44.5338C7.87293 44.7114 7.30404 44.9392 6.75781 45.2148C6.17909 45.5046 5.62387 45.8393 5.09729 46.2156C5.04132 46.2543 4.97469 46.2823 4.92005 46.3222C2.1659 43.8814 1.91186 39.67 4.35266 36.9159ZM63.8497 65.2756C63.4499 65.3129 63.0501 65.3236 62.6397 65.3236H11.9979C6.84827 65.3177 2.67498 61.1444 2.66915 55.9948C2.66482 53.9353 3.34882 51.9335 4.6122 50.3069C4.97335 49.833 5.38249 49.3976 5.83293 49.0076C6.47278 48.445 7.1856 47.9713 7.95189 47.5989C8.56642 47.2929 9.2151 47.0609 9.88427 46.9073C10.3872 46.7857 10.7742 46.384 10.8771 45.8771C11.1685 44.4442 11.7524 43.0867 12.5923 41.8897C12.873 41.4828 13.185 41.0983 13.5251 40.7396C13.8971 40.3463 14.2981 39.9815 14.7246 39.6482C14.935 39.4673 15.1575 39.3012 15.3909 39.1511C15.8174 38.8644 16.2626 38.6067 16.7236 38.3795C17.0612 38.2207 17.4069 38.0793 17.7591 37.9557C18.0149 37.8651 18.2761 37.7931 18.5387 37.7225C18.6266 37.6985 18.7119 37.6692 18.8052 37.6478C19.0851 37.5799 19.3676 37.5292 19.6501 37.4839C19.7301 37.4719 19.8101 37.4546 19.89 37.4439C20.1446 37.4093 20.4004 37.3893 20.6563 37.3733C20.7896 37.3653 20.9122 37.3546 21.0415 37.352C21.292 37.344 21.5399 37.352 21.7878 37.352C21.877 37.352 21.9663 37.352 22.0543 37.364C22.3035 37.38 22.5487 37.4079 22.7926 37.4413C22.8845 37.4533 22.9778 37.4626 23.0685 37.4773C23.319 37.5186 23.5669 37.5745 23.8121 37.6345C23.8894 37.6532 23.968 37.6665 24.0453 37.6865C24.3613 37.7713 24.6727 37.8722 24.9782 37.989C25.6648 38.254 26.4363 37.9124 26.7013 37.2257C26.7825 37.0158 26.809 36.7886 26.7786 36.5657C26.6947 35.938 26.6542 35.3053 26.6574 34.672C26.6544 34.1549 26.6828 33.6383 26.7426 33.1247C26.8334 32.2503 27.001 31.3856 27.2437 30.5407C27.5303 29.5515 27.9257 28.5971 28.4232 27.6954C28.4325 27.6781 28.4418 27.6607 28.4498 27.6434C28.4578 27.6261 28.4818 27.5874 28.4965 27.5581C29.121 26.4024 29.9083 25.3424 30.834 24.4103C33.5891 21.5861 37.3714 19.9993 41.3168 20.0125C41.7606 20.0125 42.203 20.0378 42.6308 20.0725C43.0133 20.1098 43.3851 20.1564 43.7543 20.2284L43.8302 20.2404C44.0825 20.272 44.3328 20.3165 44.5805 20.3737C51.2308 21.9276 55.9451 27.8427 55.9763 34.672C55.9763 34.9598 55.9629 35.2477 55.951 35.5342C55.9191 36.2695 56.4895 36.8914 57.2248 36.9232C57.3981 36.9307 57.571 36.9044 57.7341 36.8456C59.3083 36.2832 60.9682 35.9986 62.6397 36.0046C70.7359 35.9906 77.3104 42.5426 77.3244 50.6388C77.3376 58.2854 71.4713 64.6576 63.8497 65.2756Z" fill="white"/>
</g>
<defs>
<clipPath id="clip0">
<rect width="80" height="80" fill="white"/>
</clipPath>
</defs>
</svg>
