<svg width="22" height="22" viewBox="0 0 22 22" fill="none" xmlns="http://www.w3.org/2000/svg">
<path d="M21.2695 20.032L16.2078 14.9703C17.4625 13.4406 18.2188 11.4812 18.2188 9.3457C18.2188 4.44727 14.2441 0.472656 9.3457 0.472656C4.44297 0.472656 0.472656 4.44727 0.472656 9.3457C0.472656 14.2441 4.44297 18.2188 9.3457 18.2188C11.4812 18.2188 13.4363 17.4668 14.966 16.2121L20.0277 21.2695C20.3715 21.6133 20.9258 21.6133 21.2695 21.2695C21.6133 20.9301 21.6133 20.3715 21.2695 20.032ZM9.3457 16.4527C5.42266 16.4527 2.23438 13.2645 2.23438 9.3457C2.23438 5.42695 5.42266 2.23438 9.3457 2.23438C13.2645 2.23438 16.457 5.42695 16.457 9.3457C16.457 13.2645 13.2645 16.4527 9.3457 16.4527Z" fill="#DFDFDF"/>
</svg>
