<svg xmlns="http://www.w3.org/2000/svg" viewBox="0 0 1440 53.5">
  <defs>
    <style>
      .bdc05d1f-984d-4420-a576-f17c918ade78 {
        fill: #fff;
        fill-rule: evenodd;
      }
    </style>
  </defs>
  <title>edgeEnding</title>
  <g id="b226e7bd-26a5-49ca-8628-31adaacda780" data-name="Warstwa 2">
    <g id="f585a962-03b2-4579-bf0a-b27eb07e875f" data-name="Warstwa 1">
      <path class="bdc05d1f-984d-4420-a576-f17c918ade78" d="M1433.5,0h-1a3.5,3.5,0,0,0-3.5,3.5V14.31a4.64,4.64,0,0,1-4.07,4.67A4.5,4.5,0,0,1,1420,14.5V3.5a3.5,3.5,0,0,0-3.5-3.5h-1a3.5,3.5,0,0,0-3.5,3.5V34.31a4.64,4.64,0,0,1-4.07,4.67A4.5,4.5,0,0,1,1403,34.5V3.5a3.5,3.5,0,0,0-3.5-3.5h-1a3.5,3.5,0,0,0-3.5,3.5V19.31a4.64,4.64,0,0,1-4.07,4.67A4.5,4.5,0,0,1,1386,19.5V3.5a3.5,3.5,0,0,0-3.5-3.5h-1a3.5,3.5,0,0,0-3.5,3.5V31.31a4.64,4.64,0,0,1-4.07,4.67A4.5,4.5,0,0,1,1369,31.5V3.5a3.5,3.5,0,0,0-3.5-3.5h-1a3.5,3.5,0,0,0-3.5,3.5v9.81a4.64,4.64,0,0,1-4.07,4.67A4.5,4.5,0,0,1,1352,13.5V3.5a3.5,3.5,0,0,0-3.5-3.5h-1a3.5,3.5,0,0,0-3.5,3.5V34.31a4.64,4.64,0,0,1-4.07,4.67A4.5,4.5,0,0,1,1335,34.5V3.5a3.5,3.5,0,0,0-3.5-3.5h-1a3.5,3.5,0,0,0-3.5,3.5V26.31a4.64,4.64,0,0,1-4.07,4.67A4.5,4.5,0,0,1,1318,26.5V3.5a3.5,3.5,0,0,0-3.5-3.5h-1a3.5,3.5,0,0,0-3.5,3.5V19.31a4.64,4.64,0,0,1-4.07,4.67A4.5,4.5,0,0,1,1301,19.5V3.5a3.5,3.5,0,0,0-3.5-3.5h-1a3.5,3.5,0,0,0-3.5,3.5v6.81a4.64,4.64,0,0,1-4.07,4.67A4.5,4.5,0,0,1,1284,10.5v-7a3.5,3.5,0,0,0-3.5-3.5h-1a3.5,3.5,0,0,0-3.5,3.5V21.31a4.64,4.64,0,0,1-4.07,4.67A4.5,4.5,0,0,1,1267,21.5V3.5a3.5,3.5,0,0,0-3.5-3.5h-1a3.5,3.5,0,0,0-3.5,3.5V5.31a4.64,4.64,0,0,1-4.07,4.67A4.5,4.5,0,0,1,1250,5.5v-2a3.5,3.5,0,0,0-3.5-3.5h-1a3.5,3.5,0,0,0-3.5,3.5v9.81a4.64,4.64,0,0,1-4.07,4.67A4.5,4.5,0,0,1,1233,13.5V3.5a3.5,3.5,0,0,0-3.5-3.5h-1a3.5,3.5,0,0,0-3.5,3.5V5.31a4.64,4.64,0,0,1-4.07,4.67A4.5,4.5,0,0,1,1216,5.5v-2a3.5,3.5,0,0,0-3.5-3.5h-1a3.5,3.5,0,0,0-3.5,3.5v9.81a4.64,4.64,0,0,1-4.07,4.67A4.5,4.5,0,0,1,1199,13.5V3.5a3.5,3.5,0,0,0-3.5-3.5h-1a3.5,3.5,0,0,0-3.5,3.5V5.31a4.64,4.64,0,0,1-4.07,4.67A4.5,4.5,0,0,1,1182,5.5v-2a3.5,3.5,0,0,0-3.5-3.5h-1a3.5,3.5,0,0,0-3.5,3.5V19.31a4.64,4.64,0,0,1-4.07,4.67A4.5,4.5,0,0,1,1165,19.5V3.5a3.5,3.5,0,0,0-3.5-3.5h-1a3.5,3.5,0,0,0-3.5,3.5v7.81a4.64,4.64,0,0,1-4.07,4.67A4.5,4.5,0,0,1,1148,11.5v-8a3.5,3.5,0,0,0-3.5-3.5h-1a3.5,3.5,0,0,0-3.5,3.5V26.31a4.64,4.64,0,0,1-4.07,4.67A4.5,4.5,0,0,1,1131,26.5V3.5a3.5,3.5,0,0,0-3.5-3.5h-1a3.5,3.5,0,0,0-3.5,3.5v7.81a4.64,4.64,0,0,1-4.07,4.67A4.5,4.5,0,0,1,1114,11.5v-8a3.5,3.5,0,0,0-3.5-3.5h-1a3.5,3.5,0,0,0-3.5,3.5V26.31a4.64,4.64,0,0,1-4.07,4.67A4.5,4.5,0,0,1,1097,26.5V3.5a3.5,3.5,0,0,0-3.5-3.5h-1a3.5,3.5,0,0,0-3.5,3.5v9.81a4.64,4.64,0,0,1-4.07,4.67A4.5,4.5,0,0,1,1080,13.5V3.5a3.5,3.5,0,0,0-3.5-3.5h-1a3.5,3.5,0,0,0-3.5,3.5V26.31a4.64,4.64,0,0,1-4.07,4.67A4.5,4.5,0,0,1,1063,26.5V3.5a3.5,3.5,0,0,0-3.5-3.5h-1a3.5,3.5,0,0,0-3.5,3.5v9.81a4.64,4.64,0,0,1-4.07,4.67A4.5,4.5,0,0,1,1046,13.5V3.5a3.5,3.5,0,0,0-3.5-3.5h-1a3.5,3.5,0,0,0-3.5,3.5V31.31a4.64,4.64,0,0,1-4.07,4.67A4.5,4.5,0,0,1,1029,31.5V3.5a3.5,3.5,0,0,0-3.5-3.5h-1a3.5,3.5,0,0,0-3.5,3.5V19.31a4.64,4.64,0,0,1-4.07,4.67A4.5,4.5,0,0,1,1012,19.5V3.5a3.5,3.5,0,0,0-3.5-3.5h-1a3.5,3.5,0,0,0-3.5,3.5V26.31A4.63,4.63,0,0,1,999.94,31,4.5,4.5,0,0,1,995,26.5V3.5A3.5,3.5,0,0,0,991.5,0h-1A3.5,3.5,0,0,0,987,3.5V19.31A4.63,4.63,0,0,1,982.94,24,4.5,4.5,0,0,1,978,19.5V3.5A3.5,3.5,0,0,0,974.5,0h-1A3.5,3.5,0,0,0,970,3.5V7.31A4.63,4.63,0,0,1,965.94,12,4.5,4.5,0,0,1,961,7.5v-4A3.5,3.5,0,0,0,957.5,0h-1A3.5,3.5,0,0,0,953,3.5V31.31A4.63,4.63,0,0,1,948.94,36,4.5,4.5,0,0,1,944,31.5V3.5A3.5,3.5,0,0,0,940.5,0h-1A3.5,3.5,0,0,0,936,3.5V19.31A4.63,4.63,0,0,1,931.94,24,4.5,4.5,0,0,1,927,19.5V3.5A3.5,3.5,0,0,0,923.5,0h-1A3.5,3.5,0,0,0,919,3.5v8.81A4.63,4.63,0,0,1,914.94,17,4.5,4.5,0,0,1,910,12.5v-9A3.5,3.5,0,0,0,906.5,0h-1.19A3.31,3.31,0,0,0,902,3.31h0A4.63,4.63,0,0,1,897.94,8,4.5,4.5,0,0,1,893,3.5h0A3.5,3.5,0,0,0,889.5,0h-1A3.5,3.5,0,0,0,885,3.5V15.31A4.63,4.63,0,0,1,880.94,20,4.5,4.5,0,0,1,876,15.5V3.5A3.5,3.5,0,0,0,872.5,0h-1A3.5,3.5,0,0,0,868,3.5V24.31A4.63,4.63,0,0,1,863.94,29,4.5,4.5,0,0,1,859,24.5V3.5A3.5,3.5,0,0,0,855.5,0h-1A3.5,3.5,0,0,0,851,3.5v6.81A4.63,4.63,0,0,1,846.94,15,4.5,4.5,0,0,1,842,10.5v-7A3.5,3.5,0,0,0,838.5,0h-1A3.5,3.5,0,0,0,834,3.5V27.31A4.63,4.63,0,0,1,829.94,32,4.5,4.5,0,0,1,825,27.5V3.5A3.5,3.5,0,0,0,821.5,0h-1A3.5,3.5,0,0,0,817,3.5v6.81A4.63,4.63,0,0,1,812.94,15,4.5,4.5,0,0,1,808,10.5v-7A3.5,3.5,0,0,0,804.5,0h-1A3.5,3.5,0,0,0,800,3.5V36.31A4.63,4.63,0,0,1,795.94,41,4.5,4.5,0,0,1,791,36.5V3.5A3.5,3.5,0,0,0,787.5,0h-1A3.5,3.5,0,0,0,783,3.5V24.31A4.63,4.63,0,0,1,778.94,29,4.5,4.5,0,0,1,774,24.5V3.5A3.5,3.5,0,0,0,770.5,0h-1A3.5,3.5,0,0,0,766,3.5V33.31A4.63,4.63,0,0,1,761.94,38,4.5,4.5,0,0,1,757,33.5V3.5A3.5,3.5,0,0,0,753.5,0h-1A3.5,3.5,0,0,0,749,3.5V22.31A4.63,4.63,0,0,1,744.94,27,4.5,4.5,0,0,1,740,22.5V3.5A3.5,3.5,0,0,0,736.5,0h-1A3.5,3.5,0,0,0,732,3.5V27.31A4.63,4.63,0,0,1,727.94,32,4.5,4.5,0,0,1,723,27.5V3.5A3.5,3.5,0,0,0,719.5,0h-1A3.5,3.5,0,0,0,715,3.5V33.31A4.63,4.63,0,0,1,710.94,38,4.5,4.5,0,0,1,706,33.5V3.5A3.5,3.5,0,0,0,702.5,0h-1A3.5,3.5,0,0,0,698,3.5V38.31A4.63,4.63,0,0,1,693.94,43,4.5,4.5,0,0,1,689,38.5V3.5A3.5,3.5,0,0,0,685.5,0h-1A3.5,3.5,0,0,0,681,3.5V19.31A4.63,4.63,0,0,1,676.94,24,4.5,4.5,0,0,1,672,19.5V4a4,4,0,0,0-4-4h0a4,4,0,0,0-4,4V31.31A4.63,4.63,0,0,1,659.94,36,4.5,4.5,0,0,1,655,31.5V3a3,3,0,0,0-3-3h-2a3,3,0,0,0-3,3V22.31A4.63,4.63,0,0,1,642.94,27,4.5,4.5,0,0,1,638,22.5V3a3,3,0,0,0-3-3h-2a3,3,0,0,0-3,3v7.31A4.63,4.63,0,0,1,625.94,15,4.5,4.5,0,0,1,621,10.5V3a3,3,0,0,0-3-3h-2a3,3,0,0,0-3,3V19.31A4.63,4.63,0,0,1,608.94,24,4.5,4.5,0,0,1,604,19.5V3a3,3,0,0,0-3-3h-2a3,3,0,0,0-3,3V28.31A4.63,4.63,0,0,1,591.94,33,4.5,4.5,0,0,1,587,28.5V3a3,3,0,0,0-3-3h-2a3,3,0,0,0-3,3V36.31A4.63,4.63,0,0,1,574.94,41,4.5,4.5,0,0,1,570,36.5V3a3,3,0,0,0-3-3h-2a3,3,0,0,0-3,3V7.31A4.63,4.63,0,0,1,557.94,12,4.5,4.5,0,0,1,553,7.5V3a3,3,0,0,0-3-3h-2a3,3,0,0,0-3,3V22.31A4.63,4.63,0,0,1,540.94,27,4.5,4.5,0,0,1,536,22.5V3a3,3,0,0,0-3-3h-2a3,3,0,0,0-3,3V31.31A4.63,4.63,0,0,1,523.94,36,4.5,4.5,0,0,1,519,31.5V3a3,3,0,0,0-3-3h-2a3,3,0,0,0-3,3V22.31A4.63,4.63,0,0,1,506.94,27,4.5,4.5,0,0,1,502,22.5V3a3,3,0,0,0-3-3h-2a3,3,0,0,0-3,3V28.31A4.63,4.63,0,0,1,489.94,33,4.5,4.5,0,0,1,485,28.5V3a3,3,0,0,0-3-3h-2a3,3,0,0,0-3,3v7.31A4.63,4.63,0,0,1,472.94,15,4.5,4.5,0,0,1,468,10.5V3a3,3,0,0,0-3-3h-2a3,3,0,0,0-3,3V22.31A4.63,4.63,0,0,1,455.94,27,4.5,4.5,0,0,1,451,22.5V3a3,3,0,0,0-3-3h-2a3,3,0,0,0-3,3V14.31A4.63,4.63,0,0,1,438.94,19,4.5,4.5,0,0,1,434,14.5V3a3,3,0,0,0-3-3h0a3,3,0,0,0-3,3V28.31A4.63,4.63,0,0,1,423.94,33,4.5,4.5,0,0,1,419,28.5V3a3,3,0,0,0-3-3h-2a3,3,0,0,0-3,3V17.31A4.63,4.63,0,0,1,406.94,22,4.5,4.5,0,0,1,402,17.5V3a3,3,0,0,0-3-3h-2a3,3,0,0,0-3,3V31.31A4.63,4.63,0,0,1,389.94,36,4.5,4.5,0,0,1,385,31.5V3a3,3,0,0,0-3-3h0a3,3,0,0,0-3,3V18.26A5.65,5.65,0,0,1,374,24a5.49,5.49,0,0,1-6-5.47V2.5A2.5,2.5,0,0,0,365.5,0h0A2.5,2.5,0,0,0,363,2.5V44.26A5.65,5.65,0,0,1,358,50a5.49,5.49,0,0,1-6-5.47V2.5A2.5,2.5,0,0,0,349.5,0h0A2.5,2.5,0,0,0,347,2.5V31.31A4.63,4.63,0,0,1,342.94,36,4.5,4.5,0,0,1,338,31.5V4a4,4,0,0,0-4-4h0a4,4,0,0,0-4,4V19.31A4.63,4.63,0,0,1,325.94,24,4.5,4.5,0,0,1,321,19.5V4a4,4,0,0,0-4-4h0a4,4,0,0,0-4,4V28.31A4.63,4.63,0,0,1,308.94,33,4.5,4.5,0,0,1,304,28.5V4a4,4,0,0,0-4-4h0a4,4,0,0,0-4,4V17.31A4.63,4.63,0,0,1,291.94,22,4.5,4.5,0,0,1,287,17.5V4a4,4,0,0,0-4-4h0a4,4,0,0,0-4,4V22.31A4.63,4.63,0,0,1,274.94,27,4.5,4.5,0,0,1,270,22.5V4a4,4,0,0,0-4-4h0a4,4,0,0,0-4,4V28.31A4.63,4.63,0,0,1,257.94,33,4.5,4.5,0,0,1,253,28.5V4a4,4,0,0,0-4-4h0a4,4,0,0,0-4,4V33.31A4.63,4.63,0,0,1,240.94,38,4.5,4.5,0,0,1,236,33.5V4a4,4,0,0,0-4-4h0a4,4,0,0,0-4,4V14.31A4.63,4.63,0,0,1,223.94,19,4.5,4.5,0,0,1,219,14.5V4a4,4,0,0,0-4-4h0a4,4,0,0,0-4,4V26.31A4.63,4.63,0,0,1,206.94,31,4.5,4.5,0,0,1,202,26.5V4a4,4,0,0,0-4-4h0a4,4,0,0,0-4,4V17.31A4.63,4.63,0,0,1,189.94,22,4.5,4.5,0,0,1,185,17.5V4a4,4,0,0,0-4-4h0a4,4,0,0,0-4,4V5.31A4.63,4.63,0,0,1,172.94,10,4.5,4.5,0,0,1,168,5.5V4a4,4,0,0,0-4-4h0a4,4,0,0,0-4,4V14.31A4.63,4.63,0,0,1,155.94,19,4.5,4.5,0,0,1,151,14.5V4a4,4,0,0,0-4-4h0a4,4,0,0,0-4,4V23.31A4.63,4.63,0,0,1,138.94,28,4.5,4.5,0,0,1,134,23.5V4a4,4,0,0,0-4-4h0a4,4,0,0,0-4,4V31.31A4.63,4.63,0,0,1,121.94,36,4.5,4.5,0,0,1,117,31.5V4a4,4,0,0,0-4-4h-1.69A2.3,2.3,0,0,0,109,2.31h0a4.63,4.63,0,0,1-3.59,4.6A4.51,4.51,0,0,1,100,2.5h0A2.5,2.5,0,0,0,97.5,0h-3A2.5,2.5,0,0,0,92,2.5V17.31A4.63,4.63,0,0,1,87.94,22,4.51,4.51,0,0,1,83,17.5V4a4,4,0,0,0-4-4h0a4,4,0,0,0-4,4V26.31A4.63,4.63,0,0,1,70.94,31,4.51,4.51,0,0,1,66,26.5V4a4,4,0,0,0-4-4h0a4,4,0,0,0-4,4V17.31A4.63,4.63,0,0,1,53.94,22,4.51,4.51,0,0,1,49,17.5V4a4,4,0,0,0-4-4h0a4,4,0,0,0-4,4V23.31A4.63,4.63,0,0,1,36.94,28,4.51,4.51,0,0,1,32,23.5V4a4,4,0,0,0-4-4h0a4,4,0,0,0-4,4V5.31A4.63,4.63,0,0,1,19.94,10,4.51,4.51,0,0,1,15,5.5V4a4,4,0,0,0-4-4h0A4,4,0,0,0,7,4V17.32A4.62,4.62,0,0,1,2.84,22,4.5,4.5,0,0,1,0,21.24V53.5H1440V44.74a4.49,4.49,0,0,1-3-4.24V3.5A3.5,3.5,0,0,0,1433.5,0ZM368,39.5a5.5,5.5,0,1,1,5.5,5.5A5.5,5.5,0,0,1,368,39.5Zm66-11a4.5,4.5,0,1,1,4.5,4.5A4.5,4.5,0,0,1,434,28.5ZM291.5,27a4.5,4.5,0,1,0,4.5,4.5A4.5,4.5,0,0,0,291.5,27ZM740,36.5a4.5,4.5,0,1,1,4.5,4.5A4.5,4.5,0,0,1,740,36.5ZM812.5,20a4.5,4.5,0,1,0,4.5,4.5A4.5,4.5,0,0,0,812.5,20ZM961,22.5a4.5,4.5,0,1,1,4.5,4.5A4.5,4.5,0,0,1,961,22.5ZM965.5,34a4.5,4.5,0,1,0,4.5,4.5A4.5,4.5,0,0,0,965.5,34ZM995,40.5a4.5,4.5,0,1,1,4.5,4.5A4.5,4.5,0,0,1,995,40.5ZM1118.5,22a4.5,4.5,0,1,0,4.5,4.5A4.49,4.49,0,0,0,1118.5,22Zm80.5,4.5a4.5,4.5,0,1,1,4.5,4.5A4.49,4.49,0,0,1,1199,26.5Zm4.5,8.5a4.5,4.5,0,1,0,4.5,4.5A4.49,4.49,0,0,0,1203.5,35ZM1250,19.5a4.5,4.5,0,1,1,4.5,4.5A4.49,4.49,0,0,1,1250,19.5ZM1356.5,22a4.5,4.5,0,1,0,4.5,4.5A4.49,4.49,0,0,0,1356.5,22Zm63.5,5.5a4.5,4.5,0,1,1,4.5,4.5A4.49,4.49,0,0,1,1420,27.5ZM223.5,24a4.5,4.5,0,1,0,4.5,4.5A4.49,4.49,0,0,0,223.5,24ZM672,33.5a4.5,4.5,0,1,1,4.5,4.5A4.5,4.5,0,0,1,672,33.5ZM189.5,27a4.5,4.5,0,1,0,4.5,4.5A4.49,4.49,0,0,0,189.5,27ZM168,19.5a4.5,4.5,0,1,1,4.5,4.5A4.49,4.49,0,0,1,168,19.5ZM642.5,32a4.5,4.5,0,1,0,4.5,4.5A4.5,4.5,0,0,0,642.5,32ZM100,14.5a4.5,4.5,0,1,1,4.5,4.5A4.49,4.49,0,0,1,100,14.5Zm4.5,9.5a4.5,4.5,0,1,0,4.5,4.5A4.49,4.49,0,0,0,104.5,24ZM553,19.5a4.5,4.5,0,1,1,4.5,4.5A4.5,4.5,0,0,1,553,19.5ZM87.5,27A4.5,4.5,0,1,0,92,31.5,4.49,4.49,0,0,0,87.5,27ZM536,36.5a4.5,4.5,0,1,1,4.5,4.5A4.5,4.5,0,0,1,536,36.5ZM19.5,14A4.5,4.5,0,1,0,24,18.5,4.49,4.49,0,0,0,19.5,14ZM468,23.5a4.5,4.5,0,1,1,4.5,4.5A4.5,4.5,0,0,1,468,23.5Z"/>
    </g>
  </g>
</svg>
